<svg width="55" height="55" viewBox="0 0 55 55" fill="none" xmlns="http://www.w3.org/2000/svg">
<path d="M25.148 55H29.8778C31.4286 55 32.5916 54.0695 32.9276 52.5446L34.2199 47.0912C35.0987 46.781 35.9258 46.445 36.7011 46.0832L41.4826 49.0296C42.7491 49.8308 44.274 49.7016 45.3336 48.6419L48.6678 45.3078C49.7274 44.2481 49.8825 42.6715 49.0296 41.3792L46.109 36.6494C46.4709 35.8741 46.8069 35.047 47.0653 34.2458L52.5705 32.9535C54.0954 32.6175 55 31.4544 55 29.9037V25.2514C55 23.7265 54.0954 22.5376 52.5705 22.2016L47.117 20.8835C46.8327 19.9789 46.4709 19.1776 46.1607 18.4798L49.0813 13.6466C49.9084 12.3285 49.805 10.8553 48.6936 9.76974L45.3336 6.43562C44.2481 5.45348 42.8783 5.27256 41.5602 5.99624L36.7011 8.99436C35.9516 8.63252 35.1245 8.29652 34.2458 7.98637L32.9276 2.45536C32.5916 0.930451 31.4286 0 29.8778 0H25.148C23.5714 0 22.4084 0.930451 22.0724 2.45536L20.7801 7.96053C19.9013 8.24483 19.0484 8.58083 18.273 8.96852L13.4398 5.99624C12.1217 5.27256 10.7777 5.42763 9.66635 6.43562L6.30639 9.76974C5.19502 10.8553 5.09164 12.3285 5.9187 13.6466L8.83929 18.4798C8.52914 19.1776 8.19314 19.9789 7.88299 20.8835L2.42951 22.2016C0.904605 22.5376 0 23.7265 0 25.2514V29.9037C0 31.4544 0.904605 32.6175 2.42951 32.9535L7.93468 34.2458C8.19314 35.047 8.52914 35.8741 8.89098 36.6494L5.97039 41.3792C5.11748 42.6715 5.27256 44.2481 6.35808 45.3078L9.66635 48.6419C10.726 49.7016 12.2509 49.8308 13.5432 49.0296L18.2989 46.0832C19.0742 46.445 19.9013 46.781 20.7801 47.0912L22.0724 52.5446C22.4084 54.0695 23.5714 55 25.148 55ZM27.5 36.5461C22.5376 36.5461 18.4798 32.4624 18.4798 27.4742C18.4798 22.5376 22.5376 18.4798 27.5 18.4798C32.4883 18.4798 36.5461 22.5376 36.5461 27.4742C36.5461 32.4624 32.4883 36.5461 27.5 36.5461Z" fill="#1C1C1E"/>
</svg>
