<svg width="71" height="27" viewBox="0 0 71 27" fill="none" xmlns="http://www.w3.org/2000/svg">
<path d="M0.556679 16.5735C0.556679 17.685 0.808176 18.5156 1.31117 19.0654C1.81419 19.6152 2.5687 19.8901 3.5747 19.8901H7.92515C8.84556 19.8901 9.5974 20.0468 10.1807 20.3601C10.7639 20.6735 11.3499 21.2676 11.9385 22.1426C12.9873 23.7152 14.2662 24.9005 15.7752 25.6986C17.2843 26.4967 18.8682 26.8958 20.527 26.8958H25.4233C25.8621 26.8958 26.2099 26.7539 26.4668 26.4701C26.7236 26.1863 26.8521 25.808 26.8521 25.335V2.29625C26.8521 1.8233 26.7236 1.44789 26.4668 1.17002C26.2099 0.892147 25.8621 0.753212 25.4233 0.753212H20.527C18.8682 0.753212 17.2843 1.14931 15.7752 1.94152C14.2662 2.73372 12.9873 3.92202 11.9385 5.50643C11.3499 6.39321 10.7639 6.99031 10.1807 7.29773C9.5974 7.60514 8.84556 7.75885 7.92515 7.75885H3.5747C2.5687 7.75885 1.81419 8.03376 1.31117 8.58359C0.808176 9.1334 0.556679 9.96402 0.556679 11.0755V16.5735ZM26.3383 10.8626H33.723C34.3223 10.8626 34.8386 10.6262 35.2719 10.1532C35.7054 9.68023 35.9222 9.10678 35.9222 8.43282C35.9222 7.77068 35.7054 7.20018 35.2719 6.72132C34.8386 6.24246 34.3223 6.00303 33.723 6.00303H26.3383V10.8626ZM26.3383 21.646H33.723C34.3223 21.646 34.8386 21.4066 35.2719 20.9277C35.7054 20.4488 35.9222 19.8783 35.9222 19.2162C35.9222 18.5422 35.7054 17.9688 35.2719 17.4958C34.8386 17.0229 34.3223 16.7864 33.723 16.7864H26.3383V21.646Z" fill="black"/>
<path d="M71 11.1503C71 10.0441 70.7485 9.21738 70.2455 8.67017C69.7425 8.12296 68.988 7.84936 67.982 7.84936L63.6315 7.84936C62.7111 7.84936 61.9593 7.69344 61.376 7.3816C60.7928 7.06973 60.2068 6.47839 59.6182 5.60755C58.5694 4.04243 57.2905 2.8627 55.7814 2.06836C54.2724 1.27403 52.6885 0.876861 51.0297 0.876861L46.1334 0.87686C45.6946 0.87686 45.3468 1.01808 45.0899 1.30051C44.8331 1.58294 44.7046 1.95951 44.7046 2.43023L44.7046 25.36C44.7046 25.8308 44.8331 26.2044 45.0899 26.4809C45.3468 26.7575 45.6946 26.8958 46.1334 26.8958L51.0297 26.8958C52.6885 26.8958 54.2724 26.5015 55.7814 25.7131C57.2905 24.9246 58.5694 23.742 59.6182 22.165C60.2068 21.2825 60.7928 20.6882 61.376 20.3822C61.9593 20.0763 62.7111 19.9233 63.6315 19.9233L67.982 19.9233C68.988 19.9233 69.7425 19.6497 70.2455 19.1024C70.7485 18.5552 71 17.7285 71 16.6224L71 11.1503Z" fill="black"/>
</svg>
